<?xml version="1.0" encoding="UTF-8" standalone="no"?>
<!-- Created with Inkscape (http://www.inkscape.org/) -->

<svg
   xmlns:dc="http://purl.org/dc/elements/1.1/"
   xmlns:cc="http://creativecommons.org/ns#"
   xmlns:rdf="http://www.w3.org/1999/02/22-rdf-syntax-ns#"
   xmlns:svg="http://www.w3.org/2000/svg"
   xmlns="http://www.w3.org/2000/svg"
   xmlns:sodipodi="http://sodipodi.sourceforge.net/DTD/sodipodi-0.dtd"
   xmlns:inkscape="http://www.inkscape.org/namespaces/inkscape"
   width="1280"
   height="720"
   id="svg2"
   version="1.1"
   inkscape:version="0.48.2 r9819"
   sodipodi:docname="beginScreen.svg"
   inkscape:export-filename="/Users/russ/bikeshed/videoServer/images/beginScreen.png"
   inkscape:export-xdpi="90"
   inkscape:export-ydpi="90">
  <defs
     id="defs4" />
  <sodipodi:namedview
     id="base"
     pagecolor="#000000"
     bordercolor="#666666"
     borderopacity="1.0"
     inkscape:pageopacity="1"
     inkscape:pageshadow="2"
     inkscape:zoom="0.87109375"
     inkscape:cx="640"
     inkscape:cy="293.56712"
     inkscape:document-units="px"
     inkscape:current-layer="g4414"
     showgrid="false"
     inkscape:window-width="1680"
     inkscape:window-height="1002"
     inkscape:window-x="0"
     inkscape:window-y="0"
     inkscape:window-maximized="1"
     inkscape:snap-global="true"
     inkscape:snap-grids="true"
     showguides="true"
     inkscape:guide-bbox="true">
    <inkscape:grid
       type="xygrid"
       id="grid2997" />
  </sodipodi:namedview>
  <metadata
     id="metadata7">
    <rdf:RDF>
      <cc:Work
         rdf:about="">
        <dc:format>image/svg+xml</dc:format>
        <dc:type
           rdf:resource="http://purl.org/dc/dcmitype/StillImage" />
        <dc:title></dc:title>
      </cc:Work>
    </rdf:RDF>
  </metadata>
  <g
     inkscape:label="Layer 1"
     inkscape:groupmode="layer"
     id="layer1"
     transform="translate(0,-332.36218)">
    <g
       id="g4414"
       transform="matrix(1.0861905,0,0,1.0901968,-38.869063,-73.350832)">
      <text
         sodipodi:linespacing="125%"
         id="text3813"
         y="502.43573"
         x="200.0049"
         style="font-size:15.0044384px;font-style:normal;font-variant:normal;font-weight:normal;font-stretch:normal;line-height:125%;letter-spacing:0px;word-spacing:0px;fill:#ff0000;fill-opacity:1;stroke:none;font-family:Courier 10 Pitch;-inkscape-font-specification:Courier 10 Pitch"
         xml:space="preserve"><tspan
           style="font-size:83.35784912px;fill:#ff0000"
           y="502.43573"
           x="200.0049"
           id="tspan3815"
           sodipodi:role="line">AWAITING DOWNLINK</tspan></text>
      <g
         inkscape:export-ydpi="90"
         inkscape:export-xdpi="90"
         inkscape:export-filename="C:\Users\tom\Documents\Processing\commstest\hold.png"
         transform="matrix(0.75668191,0,0,0.75668191,752.77427,441.36903)"
         id="g3963">
        <g
           id="layer2"
           inkscape:label="Logo"
           style="stroke:none;display:inline"
           transform="translate(264.79449,442.91046)">
          <g
             style="stroke:none;display:inline"
             id="g2942"
             transform="matrix(2.3176288,0,0,2.3176288,1.21488,1.2265818)">
            <circle
               style="fill:#3528a8;fill-opacity:1;stroke:none"
               id="circle236"
               r="57"
               cy="57"
               cx="57"
               sodipodi:cx="57"
               sodipodi:cy="57"
               sodipodi:rx="57"
               sodipodi:ry="57"
               d="M 114,57 C 114,88.480231 88.480231,114 57,114 25.519769,114 0,88.480231 0,57 0,25.519769 25.519769,0 57,0 c 31.480231,0 57,25.519769 57,57 z" />
          </g>
        </g>
        <path
           style="fill:#3528a8;fill-opacity:1;stroke:none"
           d="m 508.62342,467.50587 c -6.40809,0.10191 -13.43943,1.00503 -21.0625,2.75 0.36624,0.301 0.73082,0.6014 1.09375,0.90625 43.32127,-2.15439 57.44698,19.7544 38.34375,53.59375 3.49722,9.0575 6.00804,18.60489 7.4375,28.5 34.40868,-45.8896 20.99411,-86.49435 -25.8125,-85.75 z"
           id="path3918"
           inkscape:connector-curvature="0" />
        <path
           inkscape:connector-curvature="0"
           style="fill:#3528a8;fill-opacity:1;stroke:none"
           d="m 519.6875,529.4375 c -0.65126,1.09062 -1.34392,2.16748 -2.0625,3.28125 0.71752,-1.11138 1.41239,-2.1927 2.0625,-3.28125 z"
           id="path3916" />
        <path
           style="fill:#3528a8;fill-opacity:1;stroke:none"
           d="m 259.52268,595.43671 c -45.92731,45.23952 -30.70745,95.45873 32.25,88.65625 5.52288,-0.59674 11.27761,-1.44393 17.1875,-2.5625 -6.7418,-5.32032 -12.94487,-11.29785 -18.53125,-17.8125 -50.87883,3.64378 -63.99291,-24.83834 -30.90625,-68.28125 z"
           id="path3910"
           inkscape:connector-curvature="0" />
        <path
           style="fill:#ffffff;fill-opacity:1;stroke:none"
           d="m 328.99298,661.84878 c 1.09122,-0.27387 81.428,-32.71146 120.61147,-73.72293 10.30334,3.53213 42.80067,7.77702 9.38896,26.07008 -27.2388,14.24168 -70.51429,30.08902 -130.00043,47.65285 z"
           id="path3829"
           inkscape:connector-curvature="0"
           sodipodi:nodetypes="cccc"
           inkscape:transform-center-x="17.735297"
           inkscape:transform-center-y="-4.819018" />
        <g
           transform="matrix(0.22527188,0.03312068,-0.03312068,0.22527188,443.80582,555.03018)"
           style="stroke:#ffffff;stroke-width:21.2039299;stroke-miterlimit:4;stroke-opacity:1;stroke-dasharray:none;display:inline"
           inkscape:label="Logo"
           id="g3867"
           inkscape:transform-center-x="26.051002"
           inkscape:transform-center-y="12.639534">
          <g
             transform="matrix(2.3176288,0,0,2.3176288,1.21488,1.2265818)"
             id="g3869"
             style="stroke:#ffffff;stroke-width:9.14897537;stroke-miterlimit:4;stroke-opacity:1;stroke-dasharray:none;display:inline">
            <circle
               d="M 114,57 C 114,88.480231 88.480231,114 57,114 25.519769,114 0,88.480231 0,57 0,25.519769 25.519769,0 57,0 c 31.480231,0 57,25.519769 57,57 z"
               sodipodi:ry="57"
               sodipodi:rx="57"
               sodipodi:cy="57"
               sodipodi:cx="57"
               cx="57"
               cy="57"
               r="57"
               id="circle3871"
               style="fill:#3528a8;fill-opacity:1;stroke:#ffffff;stroke-width:9.14897537;stroke-miterlimit:4;stroke-opacity:1;stroke-dasharray:none" />
          </g>
        </g>
        <g
           transform="matrix(0.46284477,0.06804993,-0.06804993,0.46284477,447.49915,558.8079)"
           style="display:inline"
           id="g238"
           inkscape:transform-center-x="25.471292"
           inkscape:transform-center-y="12.226329">
          <path
             style="fill:#ffffff"
             d="M 57,98.501 43.999,85.5 46.217,83.282 30.717,67.781 28.499,70 15.498,57 34.987,37.51 l 13.002,13 -4.234,4.235 2.66,2.661 10.992,-10.993 -2.66,-2.66 -4.089,4.089 L 37.656,34.841 57,15.497 70.001,28.498 67.784,30.716 83.282,46.216 85.501,43.998 98.503,57 79.159,76.343 66.157,63.342 70.246,59.253 68.083,57.09 57.091,68.083 59.253,70.245 63.487,66.011 76.49,79.014 57,98.501 z"
             id="path240"
             inkscape:connector-curvature="0" />
        </g>
        <g
           transform="translate(-9.5964492,-10.606602)"
           style="font-size:18px;font-style:normal;font-variant:normal;font-weight:normal;font-stretch:normal;text-align:start;line-height:125%;letter-spacing:0px;word-spacing:0px;writing-mode:lr-tb;text-anchor:start;fill:#ffffff;fill-opacity:1;stroke:none;font-family:Hanzel Extended;-inkscape-font-specification:Hanzel Extended"
           id="text3920">
          <path
             inkscape:connector-curvature="0"
             d="m 295.63537,572.74764 c -0.0506,1.76295 -0.1904,3.06026 -0.41943,3.89191 -0.21782,0.84958 -0.58214,1.59529 -1.09295,2.23715 -0.43349,0.60305 -0.93223,1.02837 -1.4962,1.27596 -0.55846,0.25948 -1.34138,0.37476 -2.34878,0.34585 l -7.53792,-0.21633 0.11372,-3.96223 7.45005,0.21381 c 0.76727,0.022 1.29591,-0.0156 1.58592,-0.11276 0.3019,-0.1027 0.53461,-0.2455 0.69813,-0.42839 0.16368,-0.18874 0.30185,-0.40752 0.4145,-0.65635 0.11232,-0.2371 0.21033,-0.48635 0.29403,-0.74773 0.14032,-0.59973 0.2235,-1.35351 0.24955,-2.26135 l 0.13337,-4.6475 2.09973,0.0603 z"
             style="font-size:18px;fill:#ffffff;fill-opacity:1"
             id="path3939" />
          <path
             inkscape:connector-curvature="0"
             d="m 284.57259,558.89433 5.01902,1.15582 1.63117,-7.08316 -5.01903,-1.15582 0.8856,-3.84564 12.35057,2.84419 -0.8856,3.84563 -5.15606,-1.18738 -1.63117,7.08317 5.15606,1.18737 -0.8856,3.84564 -12.35057,-2.84419 z"
             style="font-size:18px;fill:#ffffff;fill-opacity:1"
             id="path3941" />
          <path
             inkscape:connector-curvature="0"
             d="m 297.99683,528.27461 -4.10881,8.86779 c -0.44832,0.9676 -0.66183,1.7211 -0.64054,2.2605 0.0323,0.55743 0.31431,0.95931 0.84595,1.20564 0.40405,0.18722 0.80251,0.14259 1.19537,-0.13389 0.39948,-0.3186 0.76303,-0.83145 1.09065,-1.53855 l 2.2022,-4.75288 c 0.91389,-1.97237 1.81223,-3.25615 2.69502,-3.85132 0.88279,-0.59513 1.91431,-0.61928 3.09456,-0.0724 1.18555,0.54934 1.83024,1.42279 1.93405,2.62035 0.11975,1.20499 -0.29949,2.84152 -1.25772,4.90959 l -4.43027,9.56159 -2.0415,-0.94591 4.16054,-8.97944 c 0.48034,-1.03669 0.70922,-1.80244 0.68663,-2.29726 3.5e-4,-0.51644 -0.23339,-0.88305 -0.70123,-1.09984 -0.45722,-0.21183 -0.88881,-0.17932 -1.29477,0.0975 -0.37899,0.30229 -0.78034,0.91064 -1.20403,1.82505 l -1.96203,4.23453 c -0.90649,1.95645 -1.83702,3.28181 -2.79157,3.97609 -0.96389,0.64476 -2.01204,0.70479 -3.14444,0.1801 -1.20682,-0.55916 -1.87705,-1.45413 -2.01069,-2.68491 -0.12013,-1.21806 0.29891,-2.86114 1.25713,-4.92924 l 4.36007,-9.41007 z"
             style="font-size:18px;fill:#ffffff;fill-opacity:1"
             id="path3943" />
          <path
             inkscape:connector-curvature="0"
             d="m 309.82959,511.17856 2.20826,1.89391 3.78782,-4.41653 c 0.31279,-0.3647 0.55248,-0.68017 0.71907,-0.94643 0.15451,-0.26114 0.2496,-0.51152 0.28526,-0.75112 0.0961,-0.48106 -0.0471,-0.88562 -0.42959,-1.21369 -0.37361,-0.3204 -0.79526,-0.40028 -1.26497,-0.23964 -0.45129,0.18419 -0.9592,0.6054 -1.52375,1.26364 z m 9.99328,0.83609 c 0.5798,-0.67604 0.91458,-1.24188 1.00433,-1.69755 0.0897,-0.45564 -0.0655,-0.85512 -0.46582,-1.19844 -0.3914,-0.33567 -0.80988,-0.42826 -1.25543,-0.27778 -0.457,0.16385 -0.96968,0.57712 -1.53804,1.23981 l -3.82215,4.45655 2.25496,1.93397 z m 2.05693,1.05781 -6.74026,7.85902 -9.62029,-8.25081 6.29396,-7.33864 c 0.40053,-0.46699 0.76131,-0.86965 1.08235,-1.208 0.32105,-0.33832 0.6405,-0.65679 0.95835,-0.95542 0.59057,-0.53556 1.10483,-0.90117 1.54277,-1.09681 0.65534,-0.34107 1.28314,-0.49929 1.8834,-0.47467 0.60026,0.0247 1.12499,0.22961 1.57421,0.61486 0.53816,0.46158 0.84083,1.02221 0.90802,1.6819 0.0761,0.66735 -0.0719,1.47444 -0.44399,2.42127 0.85876,-0.56028 1.61038,-0.86512 2.25483,-0.91452 0.63682,-0.0405 1.22876,0.17388 1.77583,0.64304 0.89842,0.77055 1.22481,1.72205 0.97917,2.85449 -0.23994,1.15281 -1.05606,2.54091 -2.44835,4.16429 z"
             style="font-size:18px;fill:#ffffff;fill-opacity:1"
             id="path3945" />
          <path
             inkscape:connector-curvature="0"
             d="m 331.48308,503.49046 -3.03251,2.80498 -8.6059,-9.304 3.03251,-2.80497 z"
             style="font-size:18px;fill:#ffffff;fill-opacity:1"
             id="path3947" />
          <path
             inkscape:connector-curvature="0"
             d="m 326.73261,490.65564 3.15557,-2.36973 3.65222,4.86337 2.29346,-9.32837 3.767,-2.82889 -2.3004,9.46549 9.98827,0.61082 -4.04813,3.04 -9.52603,-0.72712 3.78416,5.03907 -3.15557,2.36972 z"
             style="font-size:18px;fill:#ffffff;fill-opacity:1"
             id="path3949" />
          <path
             inkscape:connector-curvature="0"
             d="m 350.30936,477.53417 c -1.24152,0.68505 -2.06558,1.41411 -2.47218,2.1872 -0.4066,0.77312 -0.41289,1.6198 -0.0189,2.54005 l 9.6046,-5.27944 1.06152,1.92384 -9.61151,5.30333 c 0.53783,0.97475 1.22523,1.4989 2.06219,1.57246 0.83235,0.0895 1.95137,-0.25357 3.35706,-1.02919 l 5.68687,-3.13783 1.07001,1.93923 -5.85617,3.23125 c -0.68746,0.37932 -1.27567,0.68379 -1.76463,0.91343 -0.4918,0.22452 -0.96043,0.40613 -1.40587,0.54484 -0.78954,0.25496 -1.62082,0.38572 -2.49386,0.39229 -1.07454,0.0174 -2.03167,-0.22243 -2.87138,-0.71943 -0.83971,-0.49699 -1.53556,-1.24569 -2.08755,-2.24609 -1.07,-1.93922 -1.23384,-3.73099 -0.4915,-5.37529 0.74234,-1.64429 2.43711,-3.19676 5.08432,-4.65742 l 5.76382,-3.1803 1.07001,1.93924 z"
             style="font-size:18px;fill:#ffffff;fill-opacity:1"
             id="path3951" />
          <path
             inkscape:connector-curvature="0"
             d="m 375.54619,466.83282 -9.17946,3.35525 c -1.00159,0.36612 -1.68578,0.74721 -2.05256,1.14328 -0.37176,0.41663 -0.45706,0.9001 -0.25591,1.45042 0.15288,0.41825 0.46592,0.66878 0.93913,0.75159 0.5077,0.0577 1.12752,-0.0472 1.85946,-0.31471 l 4.91992,-1.79832 c 2.0417,-0.74627 3.58498,-1.01716 4.62984,-0.81266 1.04482,0.20453 1.79053,0.91765 2.2371,2.13936 0.44856,1.22724 0.28565,2.30054 -0.48874,3.21993 -0.76839,0.9359 -2.22296,1.79509 -4.36371,2.57758 l -9.89763,3.61776 -0.77244,-2.11326 9.29503,-3.39749 c 1.07312,-0.39225 1.77684,-0.77112 2.11114,-1.13662 0.36583,-0.36454 0.46024,-0.78895 0.28323,-1.27325 -0.173,-0.47327 -0.50086,-0.75582 -0.98358,-0.84763 -0.48168,-0.0548 -1.1958,0.0908 -2.14235,0.43682 l -4.38335,1.6022 c -2.02521,0.74025 -3.62066,1.01773 -4.78637,0.83244 -1.13724,-0.22688 -1.92009,-0.92642 -2.34855,-2.09863 -0.45662,-1.24923 -0.29651,-2.35582 0.48032,-3.31978 0.77737,-0.94541 2.23643,-1.80937 4.37721,-2.59187 l 9.74078,-3.56043 z"
             style="font-size:18px;fill:#ffffff;fill-opacity:1"
             id="path3953" />
          <path
             inkscape:connector-curvature="0"
             d="m 384.48881,462.40741 0.91398,5.06864 7.15319,-1.28987 -0.91398,-5.06864 3.88365,-0.70031 2.24909,12.47268 -3.88365,0.7003 -0.93894,-5.20704 -7.15319,1.28987 0.93894,5.20704 -3.88366,0.70031 -2.24908,-12.47268 z"
             style="font-size:18px;fill:#ffffff;fill-opacity:1"
             id="path3955" />
          <path
             inkscape:connector-curvature="0"
             d="m 409.28324,462.04861 c -1.4178,0.0223 -2.48762,0.27944 -3.20945,0.77132 -0.72184,0.4919 -1.12472,1.23661 -1.20863,2.23414 l 10.95888,-0.15493 0.0346,2.19699 -10.97618,0.17279 c 0.0175,1.11315 0.37856,1.89857 1.08312,2.35629 0.69302,0.46962 1.84216,0.69179 3.44744,0.66652 l 6.49432,-0.10223 0.0349,2.21457 -6.68765,0.10527 c -0.78507,0.0124 -1.44737,0.005 -1.98691,-0.0215 -0.53965,-0.0325 -1.0387,-0.0921 -1.49714,-0.1786 -0.81685,-0.14537 -1.61228,-0.41999 -2.38631,-0.82387 -0.95704,-0.48891 -1.6897,-1.14982 -2.19799,-1.98274 -0.50829,-0.83292 -0.77142,-1.8206 -0.78941,-2.96304 -0.0349,-2.21456 0.66128,-3.87367 2.08842,-4.97734 1.42714,-1.10364 3.65224,-1.67926 6.67531,-1.72686 l 6.58219,-0.10362 0.0349,2.21457 z"
             style="font-size:18px;fill:#ffffff;fill-opacity:1"
             id="path3957" />
          <path
             inkscape:connector-curvature="0"
             d="m 429.398,463.40234 -4.53694,-0.68185 -1.22525,8.15258 4.54563,0.68316 c 1.73249,0.26038 2.97386,0.1418 3.72412,-0.35574 0.73603,-0.4819 1.21987,-1.49349 1.45152,-3.03478 0.22814,-1.5181 0.0635,-2.63012 -0.49405,-3.33606 -0.57754,-0.69115 -1.73255,-1.16692 -3.46503,-1.42731 z m -8.11023,-3.4586 8.52632,1.28142 c 2.96666,0.44587 5.08903,1.30551 6.36711,2.57893 1.27804,1.27343 1.75075,3.01685 1.41811,5.23027 -0.16983,1.12989 -0.56123,2.07834 -1.1742,2.84537 -0.62547,0.77108 -1.43744,1.32451 -2.43592,1.66032 -0.81915,0.28572 -1.65564,0.45034 -2.50947,0.49385 -0.85385,0.0435 -1.99926,-0.0427 -3.43624,-0.25868 l -8.6393,-1.2984 z"
             style="font-size:18px;fill:#ffffff;fill-opacity:1"
             id="path3959" />
        </g>
      </g>
      <path
         sodipodi:nodetypes="ccccccccc"
         inkscape:connector-curvature="0"
         id="path4163"
         d="m 900,752.36218 300,0 0,250.00002 -1000,0 -150,-150.00002 0,-300 150,-150 850,0 150,150"
         style="fill:none;stroke:#ffffff;stroke-width:10;stroke-linecap:round;stroke-linejoin:bevel;stroke-miterlimit:4;stroke-opacity:1;stroke-dasharray:none" />
      <text
         sodipodi:linespacing="125%"
         id="text4165"
         y="552.48523"
         x="400.24612"
         style="font-size:9.06154346px;font-style:normal;font-variant:normal;font-weight:normal;font-stretch:normal;line-height:125%;letter-spacing:0px;word-spacing:0px;fill:#ff0000;fill-opacity:1;stroke:none;font-family:Courier 10 Pitch;-inkscape-font-specification:Courier 10 Pitch"
         xml:space="preserve"><tspan
           style="font-size:50.3419075px;fill:#ff0000"
           y="552.48523"
           x="400.24612"
           id="tspan4167"
           sodipodi:role="line">PLEASE STAND-BY</tspan></text>
      <text
         sodipodi:linespacing="125%"
         id="text4241"
         y="602.36218"
         x="100"
         style="font-size:18px;font-style:normal;font-variant:normal;font-weight:normal;font-stretch:normal;line-height:125%;letter-spacing:0px;word-spacing:0px;fill:#000000;fill-opacity:1;stroke:none;font-family:Courier 10 Pitch;-inkscape-font-specification:Courier 10 Pitch"
         xml:space="preserve"><tspan
           id="tspan4245"
           style="font-size:28px;fill:#ffffff"
           y="602.36218"
           x="100"
           sodipodi:role="line">The LHSBikeshed is a 3 person training mission.</tspan><tspan
           id="tspan4254"
           style="font-size:28px;fill:#ffffff"
           y="637.36218"
           x="100"
           sodipodi:role="line">Led by your captain, you will journey into space</tspan><tspan
           id="tspan4256"
           style="font-size:28px;fill:#ffffff"
           y="672.36218"
           x="100"
           sodipodi:role="line">to earn your crew proficiency licenses.</tspan><tspan
           id="tspan4262"
           style="font-size:28px;fill:#ffffff"
           y="707.36218"
           x="100"
           sodipodi:role="line">With pilot, engineer, and tactical officer</tspan><tspan
           style="font-size:28px;fill:#ffffff"
           y="742.36218"
           x="100"
           sodipodi:role="line"
           id="tspan4341">staffing their stations you will take on what</tspan><tspan
           style="font-size:28px;fill:#ffffff"
           y="777.36218"
           x="100"
           sodipodi:role="line"
           id="tspan4337">the wilds of space can throw at you.</tspan><tspan
           id="tspan4264"
           style="font-size:28px;fill:#ffffff"
           y="812.36218"
           x="100"
           sodipodi:role="line" /></text>
      <text
         sodipodi:linespacing="125%"
         id="text4274"
         y="972.32623"
         x="222.18504"
         style="font-size:17.87909317px;font-style:normal;font-variant:normal;font-weight:normal;font-stretch:normal;line-height:125%;letter-spacing:0px;word-spacing:0px;fill:#000000;fill-opacity:1;stroke:none;font-family:Courier 10 Pitch;-inkscape-font-specification:Courier 10 Pitch"
         xml:space="preserve"><tspan
           style="font-size:25.82535553px;fill:#ffffff"
           y="972.32623"
           x="222.18504"
           id="tspan4276"
           sodipodi:role="line">@LHSBikeshed http://lhsbikeshed.tumblr.com</tspan></text>
      <text
         transform="translate(0,332.36218)"
         sodipodi:linespacing="93.000001%"
         id="text4325"
         y="520.2511"
         x="200.89687"
         style="font-size:18px;font-style:normal;font-variant:normal;font-weight:normal;font-stretch:normal;line-height:93.00000072%;letter-spacing:0px;word-spacing:0px;fill:#000000;fill-opacity:1;stroke:none;font-family:Courier 10 Pitch;-inkscape-font-specification:Courier 10 Pitch"
         xml:space="preserve"><tspan
           style="font-size:36px;line-height:93.00000072%;fill:#ffffff"
           y="520.2511"
           x="200.89687"
           id="tspan4327"
           sodipodi:role="line">Assemble a crew of 3 players</tspan><tspan
           id="tspan4331"
           style="font-size:36px;line-height:93.00000072%;fill:#ffffff"
           y="553.73108"
           x="200.89687"
           sodipodi:role="line">over the age of 14 and sign-up</tspan><tspan
           id="tspan4333"
           style="font-size:36px;line-height:93.00000072%;fill:#ffffff"
           y="587.21112"
           x="200.89687"
           sodipodi:role="line">now at the booking desk.</tspan><tspan
           style="font-size:36px;line-height:93.00000072%;fill:#ffffff"
           id="tspan4329"
           y="620.6911"
           x="200.89687"
           sodipodi:role="line" /></text>
    </g>
  </g>
</svg>
